# xmcd
#
# Track frame offsets:
# 150
# 11502
# 21120
# 32380
# 46355
# 57870
# 62417
# 75907
# 96570
# 115202
# 125702
# 156637
#
# Disc length: 2279 seconds
#
# Revision: 0
# Processed by: cddbd v1.4PL0 Copyright (c) Steve Scherf et al.
# Submitted via: Audion 3.0.2 (http://www.panic.com/audion/)
#
DISCID=9408e50c
DTITLE=Michael Bublé - Down With Love
DYEAR=1900
DGENRE=
TTITLE0=Down With Love
TTITLE1=Barbara Arrives
TTITLE2=Fly Me To The Moon (In Other Words)
TTITLE3=One Mint Julep
TTITLE4=For Once In My Life
TTITLE5=Girls Night Out
TTITLE6=Every Day Is A Holiday (With You)
TTITLE7=Kissing A Fool
TTITLE8=Barbara Meets Zip
TTITLE9=Fly Me To The Moon (In Other Words)
TTITLE10=Love In Three Acts
TTITLE11=Here's To Love
EXTD=
EXTT0=
EXTT1=
EXTT2=
EXTT3=
EXTT4=
EXTT5=
EXTT6=
EXTT7=
EXTT8=
EXTT9=
EXTT10=
EXTT11=
PLAYORDER=
